<svg xmlns="http://www.w3.org/2000/svg" width="16" height="16" viewBox="0 0 16 16" fill="none"><!-- Campfire/Icon/calendar (Figma 12:12153), screenshot-derived reconstruction, 16px, 1.5px stroke --><defs><clipPath id="calendar-16-r0"><path d="M0 2.526 L4 2.526 L12 2.526 L16 2.526 L16 6.737 L16 16 L0 16 L0 6.737 L0 2.526 Z"/></clipPath><clipPath id="calendar-16-frame"><rect width="16" height="16"/></clipPath></defs><g clip-path="url(#calendar-16-frame)"><g clip-path="url(#calendar-16-r0)"><path d="M4 0 L4 2.544 M12 0 L12 2.544 M0 2.526 L16 2.526 M16 2.526 L16 16 M16 16 L0 16 M0 16 L0 2.526" stroke-width="3" stroke="currentColor" stroke-linecap="round" stroke-linejoin="miter" fill="none"/><path d="M0 6.737 L16 6.737 M4 2.544 L4 4.211 M12 2.544 L12 4.211 M4 10.105 L6 10.105 M10 10.105 L12 10.105 M4 12.632 L6 12.632" stroke-width="1.5" stroke="currentColor" stroke-linecap="round" stroke-linejoin="miter" fill="none"/></g></g></svg>
