<svg xmlns="http://www.w3.org/2000/svg" width="12" height="12" viewBox="0 0 12 12" fill="none"><!-- Campfire/Icon/home (Figma 12:12143), screenshot-derived reconstruction, 12px, 1.5px stroke --><defs><clipPath id="home-12-r0"><path d="M6 1.5 L1.5 5 L1.5 10.5 L4.5 10.5 L4.5 7 L7.5 7 L7.5 10.5 L10.5 10.5 L10.5 5 L6 1.5 Z"/></clipPath><clipPath id="home-12-frame"><rect width="12" height="12"/></clipPath></defs><g clip-path="url(#home-12-frame)"><g clip-path="url(#home-12-r0)"><path d="M1.5 5 L6 1.5 M6 1.5 L10.5 5 M10.5 5 L10.5 10.5 M10.5 10.5 L7.5 10.5 M7.5 10.5 L7.5 7 M7.5 7 L4.5 7 M4.5 7 L4.5 10.5 M4.5 10.5 L1.5 10.5 M1.5 10.5 L1.5 5" stroke-width="3" stroke="currentColor" stroke-linecap="round" stroke-linejoin="miter" fill="none"/></g></g></svg>
