<svg xmlns="http://www.w3.org/2000/svg" width="16" height="16" viewBox="0 0 16 16" fill="none"><!-- Campfire/Icon/save (Figma 12:12155), reconstruction, 16px, 1.5px stroke --><defs><clipPath id="save-16-r0"><path d="M0 0 L3.556 0 L11.556 0 L13.333 0 L16 2.667 L16 16 L12.444 16 L3.556 16 L0 16 L0 0 Z"/></clipPath><clipPath id="save-16-frame"><rect width="16" height="16"/></clipPath></defs><g clip-path="url(#save-16-frame)"><g clip-path="url(#save-16-r0)"><path d="M0 0 L13.333 0 M13.333 0 L16 2.667 M16 2.667 L16 16 M16 16 L0 16 M0 16 L0 0" stroke-width="3" stroke="currentColor" stroke-linecap="round" stroke-linejoin="miter" fill="none"/><path d="M3.556 0 L3.556 6.222 M3.556 6.222 L11.556 6.222 M11.556 6.222 L11.556 0 M3.556 16 L3.556 9.778 M3.556 9.778 L12.444 9.778 M12.444 9.778 L12.444 16" stroke-width="1.5" stroke="currentColor" stroke-linecap="round" stroke-linejoin="miter" fill="none"/></g></g></svg>
