<svg xmlns="http://www.w3.org/2000/svg" width="16" height="16" viewBox="0 0 16 16" fill="none"><!-- Campfire/Icon/search (Figma 12:12163), reconstruction, 16px, 1.5px stroke --><defs><clipPath id="search-16-r0"><path d="M7.228 12.789 C10.596 12.789 13.123 10.263 13.123 6.895 C13.123 3.526 10.596 1 7.228 1 C3.86 1 1.333 3.526 1.333 6.895 C1.333 10.263 3.86 12.789 7.228 12.789 Z"/></clipPath><clipPath id="search-16-frame"><rect width="16" height="16"/></clipPath></defs><g clip-path="url(#search-16-frame)"><g clip-path="url(#search-16-r0)"><path d="M13.123 6.895 C13.123 10.263 10.596 12.789 7.228 12.789 M7.228 12.789 C3.86 12.789 1.333 10.263 1.333 6.895 M1.333 6.895 C1.333 3.526 3.86 1 7.228 1 M7.228 1 C10.596 1 13.123 3.526 13.123 6.895" stroke-width="3" stroke="currentColor" stroke-linecap="round" stroke-linejoin="miter" fill="none"/></g><path d="M 11.374 11 L 14.667 14.293" stroke-width="1.5" stroke="currentColor" stroke-linecap="round" stroke-linejoin="miter" fill="none"/></g></svg>
