<svg xmlns="http://www.w3.org/2000/svg" width="16" height="16" viewBox="0 0 16 16" fill="none"><!-- Campfire/Icon/trash (Figma 12:12156), screenshot-derived reconstruction, 16px, 1.5px stroke --><defs><clipPath id="trash-16-r0"><path d="M1.778 2.667 L5.333 2.667 L5.333 0 L10.667 0 L10.667 2.667 L14.222 2.667 L13.333 16 L2.667 16 L1.778 2.667 Z"/></clipPath><clipPath id="trash-16-frame"><rect width="16" height="16"/></clipPath></defs><g clip-path="url(#trash-16-frame)"><g clip-path="url(#trash-16-r0)"><path d="M0 2.667 L5.333 2.667 M10.667 2.667 L16 2.667 M5.333 2.667 L5.333 0 M5.333 0 L10.667 0 M10.667 0 L10.667 2.667 M1.778 2.667 L2.667 16 M2.667 16 L13.333 16 M13.333 16 L14.222 2.667" stroke-width="3" stroke="currentColor" stroke-linecap="round" stroke-linejoin="miter" fill="none"/><path d="M5.333 2.667 L10.667 2.667 M6.222 6.222 L6.222 12.444 M9.778 6.222 L9.778 12.444" stroke-width="1.5" stroke="currentColor" stroke-linecap="round" stroke-linejoin="miter" fill="none"/></g></g></svg>
